<?xml version="1.0" standalone="no"?>
<!DOCTYPE svg PUBLIC "-//W3C//DTD SVG 20010904//EN"
 "http://www.w3.org/TR/2001/REC-SVG-20010904/DTD/svg10.dtd">
<svg version="1.0" xmlns="http://www.w3.org/2000/svg"
 width="1475.000000pt" height="1410.000000pt" viewBox="0 0 1475.000000 1410.000000"
 preserveAspectRatio="xMidYMid meet">
<metadata>
Created by potrace 1.16, written by Peter Selinger 2001-2019
</metadata>
<g transform="translate(0.000000,1410.000000) scale(0.100000,-0.100000)"
fill="#000000" stroke="none">
<path d="M10640 14079 c-277 -33 -565 -121 -822 -250 -45 -23 -159 -88 -253
-144 -214 -129 -226 -135 -507 -251 -594 -244 -892 -430 -1181 -734 -354 -372
-602 -872 -731 -1470 -63 -293 -87 -513 -93 -869 l-6 -293 -49 -65 c-63 -84
-160 -284 -192 -395 -14 -49 -32 -139 -41 -200 -9 -62 -20 -131 -23 -153 l-7
-40 -34 95 c-49 140 -135 357 -203 510 -53 119 -59 140 -54 179 13 98 111 256
296 481 243 294 316 449 327 689 7 134 -5 196 -54 299 -43 91 -147 204 -232
252 l-61 35 7 40 c5 22 8 103 8 180 -1 158 -13 210 -75 336 -85 168 -225 301
-415 394 -173 85 -243 100 -465 99 -158 0 -196 -3 -262 -21 -169 -48 -315
-126 -428 -230 -30 -28 -174 -200 -320 -381 l-265 -331 -5 647 c-5 647 -5 647
-29 717 -75 223 -230 400 -434 495 -202 95 -472 95 -674 1 -206 -97 -360 -273
-434 -496 -21 -64 -23 -93 -28 -350 l-6 -280 -44 155 c-78 278 -125 371 -249
494 -115 114 -212 169 -362 207 -116 29 -300 23 -405 -14 -177 -62 -303 -159
-402 -310 -101 -154 -138 -293 -130 -495 l4 -137 227 -835 c124 -459 228 -842
231 -850 6 -18 9 -21 -263 292 -264 306 -331 360 -522 420 -64 19 -96 23 -215
23 -159 0 -232 -17 -360 -83 -106 -55 -247 -200 -303 -312 -60 -120 -83 -220
-83 -356 -1 -210 53 -342 232 -574 435 -561 682 -879 805 -1033 78 -98 165
-215 193 -261 75 -122 178 -343 266 -566 211 -542 256 -648 336 -810 153 -307
300 -504 543 -734 261 -246 422 -472 486 -683 l22 -72 -5 -853 c-4 -712 -7
-874 -21 -978 -9 -69 -41 -305 -71 -525 -114 -829 -169 -1400 -205 -2125 -17
-346 -31 -1192 -20 -1275 18 -140 87 -228 208 -265 151 -47 302 -1 379 114 18
26 37 64 42 84 6 21 15 278 20 572 21 1071 64 1588 236 2857 76 565 75 535 75
1577 0 893 -1 934 -20 1013 -56 235 -205 513 -399 743 -43 52 -154 169 -247
260 -92 91 -193 197 -225 237 -149 188 -269 426 -439 878 -184 487 -292 724
-421 920 -39 60 -146 204 -238 320 -178 224 -623 796 -784 1008 -88 115 -97
131 -97 170 0 93 89 144 154 88 10 -9 179 -200 374 -426 470 -542 566 -648
778 -855 274 -269 312 -294 439 -293 135 1 248 71 301 188 51 111 68 34 -370
1660 -218 809 -396 1487 -396 1508 0 84 56 157 120 157 48 0 84 -29 104 -83 9
-23 178 -611 377 -1307 198 -696 368 -1283 378 -1306 28 -62 80 -114 146 -146
50 -23 73 -28 137 -28 136 0 240 58 296 164 l27 51 5 1430 c5 1420 5 1430 26
1465 63 107 205 107 268 0 21 -35 21 -46 26 -1305 l5 -1270 30 -54 c59 -107
157 -161 294 -161 67 0 86 4 139 31 37 18 76 47 97 73 21 26 99 184 203 413
172 379 222 468 337 606 l57 67 59 -54 c32 -30 77 -65 99 -77 22 -12 40 -25
40 -28 0 -3 -32 -46 -70 -94 -326 -413 -546 -978 -616 -1583 l-16 -139 -68
-72 c-214 -225 -413 -543 -545 -868 -41 -103 -49 -132 -53 -207 -4 -80 -2 -93
22 -142 70 -142 251 -218 411 -171 47 13 69 28 114 73 49 50 62 72 100 172 52
136 131 291 202 398 29 42 55 81 60 86 4 5 39 -20 78 -56 144 -134 454 -327
559 -349 153 -31 290 41 360 191 38 80 38 193 0 270 -36 73 -73 107 -193 176
-55 31 -133 79 -174 107 -82 55 -227 189 -236 217 -14 43 65 439 136 684 84
291 206 569 330 755 73 108 203 250 293 317 126 96 309 162 417 152 27 -3 53
-8 56 -12 15 -15 -101 -201 -287 -461 -128 -179 -179 -264 -226 -376 -56 -133
-77 -235 -77 -374 0 -156 15 -212 118 -450 211 -487 380 -1037 461 -1502 20
-114 27 -195 31 -352 11 -416 -32 -541 -272 -801 -144 -155 -197 -227 -255
-345 -96 -196 -115 -346 -107 -875 3 -273 7 -346 21 -395 40 -143 152 -394
461 -1040 358 -747 567 -1206 743 -1635 351 -855 575 -1574 682 -2190 18 -106
38 -189 52 -216 26 -54 104 -129 154 -150 31 -13 448 -15 3442 -14 1873 0
3407 2 3409 3 1 2 3 1028 3 2281 l1 2277 -97 220 c-112 253 -164 337 -291 470
-108 112 -226 199 -356 262 -91 45 -324 126 -464 162 -40 10 -73 22 -73 27 0
4 8 29 19 55 10 26 42 116 72 198 29 83 65 171 81 196 71 116 130 288 142 414
5 49 23 111 61 205 102 259 163 481 250 920 31 151 57 284 60 295 3 15 21 25
66 38 53 15 72 28 124 80 178 183 320 662 385 1302 18 173 24 789 11 977 -29
401 -100 742 -198 959 -76 167 -397 659 -648 994 -277 368 -522 652 -795 918
-282 275 -506 446 -728 554 -122 59 -330 117 -677 187 -324 66 -426 78 -710
81 -143 2 -294 -1 -335 -6z m-4732 -1934 c101 -30 182 -115 182 -190 0 -37 -5
-48 -37 -75 -64 -57 -150 -82 -278 -81 -123 0 -219 31 -282 91 -51 47 -17 150
68 211 80 57 236 77 347 44z m3982 -1473 c59 -87 176 -204 273 -270 42 -29
128 -77 189 -106 181 -85 242 -148 451 -461 234 -351 358 -485 570 -618 171
-108 301 -147 617 -187 509 -65 860 -159 1195 -320 113 -54 288 -164 363 -227
l33 -28 -30 -125 c-17 -69 -61 -272 -100 -452 -63 -294 -139 -618 -146 -626
-2 -2 -45 10 -97 28 -104 34 -240 64 -368 80 -109 13 -413 13 -538 -1 -284
-30 -567 -117 -754 -230 l-38 -23 -101 32 c-155 49 -263 66 -439 66 l-155 1
-45 68 c-266 403 -958 737 -1529 737 l-108 0 -13 28 c-7 15 -110 244 -230 508
l-217 481 22 169 c69 508 171 939 272 1157 l36 77 56 0 c239 1 534 108 720
262 31 25 58 47 61 47 3 0 25 -30 50 -67z m-2144 -1386 c101 -134 227 -328
293 -451 18 -33 133 -283 255 -555 l223 -495 -34 -40 c-288 -336 -132 -1204
296 -1648 47 -49 113 -109 146 -134 85 -64 220 -129 333 -161 91 -25 110 -27
302 -27 228 0 293 10 479 72 345 115 624 341 761 618 41 84 42 84 87 91 62 9
202 -3 271 -24 l57 -18 12 -74 c18 -107 40 -175 84 -264 144 -290 457 -541
823 -660 142 -47 231 -61 383 -61 79 0 143 -1 143 -2 0 -1 -12 -30 -27 -65
-44 -104 -235 -363 -471 -636 l-114 -134 -19 29 c-143 218 -558 372 -1179 437
-375 40 -1016 59 -1183 37 -217 -29 -407 -140 -550 -321 -119 -150 -167 -272
-148 -373 4 -26 7 -47 6 -47 -2 0 -39 55 -82 122 -441 681 -756 1420 -849
1995 -12 75 -17 205 -21 558 l-5 460 -93 96 c-116 121 -204 253 -295 441 -252
522 -308 1095 -144 1483 l16 40 70 -75 c39 -41 117 -137 174 -214z m-529
-1790 c36 -56 87 -129 114 -162 l49 -62 0 -359 c0 -402 9 -507 64 -763 19 -85
37 -162 40 -171 13 -31 -379 -333 -587 -453 -98 -56 -162 -73 -307 -79 -75 -3
-144 -9 -154 -13 -17 -7 -18 8 -15 362 l4 369 27 55 c16 31 76 109 139 180
150 166 215 256 282 387 69 135 120 281 153 437 21 99 27 159 31 329 l6 208
44 -82 c24 -45 73 -128 110 -183z m698 -2601 c473 -934 1149 -1796 1619 -2063
178 -101 536 -211 806 -248 142 -19 433 -18 545 1 121 21 172 49 310 166 193
165 775 758 945 964 19 23 110 130 202 238 l167 196 74 -132 c458 -813 777
-1527 858 -1921 28 -136 23 -371 -10 -486 -96 -327 -355 -521 -806 -601 -117
-21 -160 -24 -430 -24 -312 0 -418 9 -647 55 -966 193 -1873 798 -2728 1820
-482 577 -997 1392 -1331 2109 l-58 124 82 58 c45 32 109 80 142 107 l60 50
39 -86 c22 -48 94 -195 161 -327z m2625 -435 c330 -27 606 -74 813 -141 l129
-41 19 -45 c17 -40 39 -143 39 -185 0 -17 -122 -154 -374 -422 -139 -146 -352
-348 -399 -377 -95 -57 -455 -18 -745 83 -169 58 -288 144 -502 364 -143 147
-234 257 -433 521 -5 7 24 -5 63 -25 67 -34 79 -37 154 -36 103 0 158 25 224
101 100 117 175 192 205 208 28 14 68 16 357 11 179 -3 381 -10 450 -16z"/>
<path d="M9997 4330 c-96 -25 -173 -88 -216 -179 -22 -47 -26 -70 -26 -141 0
-143 51 -220 206 -311 93 -54 229 -110 345 -140 82 -22 108 -24 334 -24 265 0
317 8 417 59 195 99 238 349 90 513 -80 88 -204 123 -318 90 -34 -10 -100 -17
-174 -18 -140 -2 -189 10 -376 97 -125 59 -204 73 -282 54z"/>
<path d="M5532 9910 c-48 -30 -72 -75 -72 -140 0 -65 24 -110 72 -140 22 -14
51 -20 88 -20 37 0 66 6 88 20 48 30 72 75 72 140 0 37 -6 66 -20 88 -30 48
-75 72 -140 72 -37 0 -66 -6 -88 -20z"/>
<path d="M5212 7990 c-48 -30 -72 -75 -72 -140 0 -65 24 -110 72 -140 22 -14
51 -20 88 -20 37 0 66 6 88 20 48 30 72 75 72 140 0 65 -24 110 -72 140 -22
14 -51 20 -88 20 -37 0 -66 -6 -88 -20z"/>
<path d="M4572 7670 c-48 -30 -72 -75 -72 -140 0 -100 60 -160 160 -160 37 0
66 6 88 20 48 30 72 75 72 140 0 100 -60 160 -160 160 -37 0 -66 -6 -88 -20z"/>
<path d="M2012 4790 c-48 -30 -72 -75 -72 -140 0 -100 60 -160 160 -160 100 0
160 60 160 160 0 100 -60 160 -160 160 -37 0 -66 -6 -88 -20z"/>
<path d="M732 4470 c-48 -30 -72 -75 -72 -140 0 -100 60 -160 160 -160 100 0
160 60 160 160 0 100 -60 160 -160 160 -37 0 -66 -6 -88 -20z"/>
<path d="M4572 3510 c-48 -30 -72 -75 -72 -140 0 -100 60 -160 160 -160 100 0
160 60 160 160 0 100 -60 160 -160 160 -37 0 -66 -6 -88 -20z"/>
<path d="M5652 3189 c-71 -28 -144 -101 -171 -174 -45 -119 -19 -264 62 -348
69 -70 125 -92 237 -92 112 0 168 22 237 92 115 119 112 333 -7 453 -89 88
-235 116 -358 69z"/>
<path d="M2012 2550 c-48 -30 -72 -75 -72 -140 0 -100 60 -160 160 -160 100 0
160 60 160 160 0 100 -60 160 -160 160 -37 0 -66 -6 -88 -20z"/>
<path d="M212 2229 c-71 -28 -144 -101 -171 -174 -45 -119 -19 -264 62 -348
69 -70 125 -92 237 -92 112 0 168 22 237 92 115 119 112 333 -7 453 -89 88
-235 116 -358 69z"/>
<path d="M5012 1589 c-71 -28 -144 -101 -171 -174 -45 -119 -19 -264 62 -348
69 -70 125 -92 237 -92 112 0 168 22 237 92 115 119 112 333 -7 453 -89 88
-235 116 -358 69z"/>
<path d="M5852 630 c-48 -30 -72 -75 -72 -140 0 -100 60 -160 160 -160 100 0
160 60 160 160 0 65 -24 110 -72 140 -45 27 -131 27 -176 0z"/>
</g>
</svg>
