<?xml version="1.0" standalone="no"?>
<!DOCTYPE svg PUBLIC "-//W3C//DTD SVG 20010904//EN"
 "http://www.w3.org/TR/2001/REC-SVG-20010904/DTD/svg10.dtd">
<svg version="1.0" xmlns="http://www.w3.org/2000/svg"
 width="215.000000pt" height="234.000000pt" viewBox="0 0 215.000000 234.000000"
 preserveAspectRatio="xMidYMid meet">

<g transform="translate(0.000000,234.000000) scale(0.100000,-0.100000)"
fill="#000000" stroke="none">
<path d="M880 2325 c-214 -35 -410 -153 -438 -265 -19 -76 4 -145 77 -238 23
-28 41 -57 41 -63 0 -7 -14 -34 -30 -61 -45 -73 -48 -101 -15 -132 15 -14 42
-30 61 -36 22 -8 34 -18 34 -29 0 -10 -29 -169 -65 -352 -80 -418 -151 -807
-160 -879 -27 -231 303 -308 1065 -250 162 13 205 25 250 70 86 86 85 178 -10
705 -121 673 -130 727 -124 736 3 5 31 16 62 25 31 9 63 21 70 26 29 24 7 101
-49 166 -37 42 -37 63 0 85 79 46 95 144 42 252 -61 122 -171 189 -382 230
-117 23 -324 28 -429 10z m425 -120 c105 -23 210 -78 242 -126 48 -72 38 -176
-20 -214 -14 -9 -67 -23 -119 -31 -51 -8 -100 -17 -108 -20 -26 -10 17 -21
113 -29 l89 -8 35 -53 c56 -84 48 -90 -153 -125 -222 -38 -520 -28 -729 24
-60 14 -67 35 -32 86 l23 34 97 -2 c54 -1 119 1 145 5 l47 7 -110 27 c-125 31
-219 73 -247 111 -24 32 -26 101 -5 151 22 53 83 115 130 133 106 40 216 55
377 50 87 -2 186 -11 225 -20z m179 -795 c9 -39 27 -146 41 -238 13 -92 47
-288 75 -436 73 -391 75 -472 14 -553 -34 -44 -50 -52 -157 -69 -291 -47 -583
-34 -811 36 -93 29 -129 57 -140 109 -10 49 9 211 50 406 13 66 54 280 90 475
37 195 69 358 73 362 3 3 74 -3 156 -14 181 -24 305 -20 450 15 l100 24 22
-23 c12 -13 28 -53 37 -94z"/>
<path d="M809 2094 c-16 -19 -3 -43 31 -61 27 -14 59 -4 77 24 12 18 12 23 -2
37 -21 21 -88 21 -106 0z"/>
<path d="M1048 2099 c-28 -16 -23 -67 6 -80 50 -23 109 36 76 77 -14 16 -57
18 -82 3z"/>
<path d="M1251 2086 c-21 -26 -9 -69 22 -80 48 -17 107 43 77 79 -16 19 -84
19 -99 1z"/>
<path d="M810 1385 c-5 -6 -14 -34 -20 -61 -7 -39 -56 -516 -87 -865 -6 -67 8
-99 42 -99 56 0 70 51 85 312 11 188 20 292 46 530 11 104 12 152 5 166 -12
23 -57 34 -71 17z"/>
<path d="M972 943 c-24 -46 -62 -286 -62 -391 0 -109 41 -164 93 -122 21 18
22 24 25 237 4 223 -4 293 -33 293 -8 0 -18 -8 -23 -17z"/>
</g>
</svg>
